<svg width="106" height="16" xmlns="http://www.w3.org/2000/svg" xmlns:xlink="http://www.w3.org/1999/xlink"><symbol id="a"><path d="M8 6.8v2.415h3.27c-.252 1.41-1.474 2.438-3.27 2.438-1.98 0-3.589-1.677-3.589-3.656C4.411 6.016 6.02 4.344 8 4.344c.893 0 1.691.307 2.322.907l1.69-1.688C10.975 2.597 9.62 2 8 2a5.998 5.998 0 00-6 6c0 3.315 2.685 6 6 6 3.465 0 5.76-2.438 5.76-5.865 0-.439-.042-.859-.12-1.335H8z"/></symbol><use xlink:href="#a" fill="#3d3e42"/><use x="18" xlink:href="#a" fill="#fff"/><use x="90" xlink:href="#a" fill="#4285f4"/></svg>