<?xml version="1.0" standalone="no"?>
<!DOCTYPE svg PUBLIC "-//W3C//DTD SVG 20010904//EN"
 "http://www.w3.org/TR/2001/REC-SVG-20010904/DTD/svg10.dtd">
<svg version="1.0" xmlns="http://www.w3.org/2000/svg"
 width="512.000000pt" height="512.000000pt" viewBox="0 0 512.000000 512.000000"
 preserveAspectRatio="xMidYMid meet">
<metadata>
Created by potrace 1.11, written by Peter Selinger 2001-2013
</metadata>
<g transform="translate(0.000000,512.000000) scale(0.100000,-0.100000)"
fill="#000000" stroke="none">
<path d="M1610 5099 c-6 -10 -23 -32 -38 -48 -37 -41 -43 -49 -76 -111 -29
-54 -85 -140 -97 -150 -13 -10 -69 -111 -75 -135 -3 -14 -11 -25 -17 -25 -6 0
-7 -3 -4 -7 4 -3 2 -12 -3 -19 -6 -6 -13 -23 -15 -35 -11 -54 -14 -66 -25
-114 -21 -91 -21 -90 -35 -209 -3 -27 -8 -53 -11 -58 -8 -13 -7 -1179 0 -1358
4 -74 11 -172 16 -216 6 -45 12 -104 15 -130 2 -27 12 -80 21 -119 11 -42 18
-113 19 -177 1 -69 6 -112 14 -121 10 -13 32 -15 118 -12 65 2 114 0 127 -7
19 -10 40 -35 41 -48 0 -3 3 -9 7 -15 9 -14 2 -104 -10 -144 -6 -18 -19 -45
-29 -60 -9 -14 -19 -35 -20 -45 -2 -10 -19 -44 -37 -75 -19 -31 -42 -80 -51
-109 -21 -63 -51 -84 -102 -70 -18 5 -33 13 -33 19 0 6 -21 19 -46 30 -42 19
-68 21 -330 22 -205 2 -284 -1 -284 -9 0 -6 15 -17 33 -24 17 -7 46 -19 64
-26 17 -8 34 -14 38 -14 4 0 42 -15 84 -34 76 -33 112 -48 121 -50 3 -1 41
-19 85 -40 84 -41 93 -42 248 -31 38 3 53 -1 74 -19 34 -30 33 -64 -7 -126
-61 -94 -230 -188 -370 -205 -41 -5 -167 -33 -315 -71 -33 -8 -91 -27 -130
-42 -38 -14 -76 -27 -84 -28 -7 -2 -34 -7 -60 -13 -67 -15 -102 -21 -221 -35
-30 -4 -62 -9 -70 -11 -8 -2 -31 -7 -50 -10 -19 -3 -47 -8 -62 -11 l-28 -6 0
-374 0 -374 2560 0 2560 0 0 160 0 160 -27 2 c-16 0 -32 2 -38 3 -5 0 -32 5
-60 9 -27 4 -68 9 -90 11 -22 2 -52 8 -67 14 -14 5 -28 8 -31 5 -2 -2 -17 0
-33 6 -16 6 -60 18 -99 26 -205 42 -376 96 -531 169 -52 25 -99 45 -103 45 -4
0 -25 9 -48 20 -22 10 -52 21 -65 24 -43 7 -84 33 -144 91 -32 30 -64 55 -71
55 -6 0 -28 16 -48 37 -28 28 -35 44 -35 74 0 31 6 42 33 62 43 31 95 47 191
56 43 5 81 13 85 18 9 14 40 24 91 30 24 3 63 8 85 13 l40 8 -42 1 c-24 1 -44
0 -45 -1 -2 -1 -13 4 -25 10 -12 7 -38 15 -59 18 -21 3 -48 13 -62 22 -13 9
-45 19 -71 23 -69 11 -80 14 -93 27 -7 7 -16 12 -21 12 -13 0 -31 21 -54 67
-19 35 -22 55 -18 120 8 158 24 221 72 274 19 21 40 39 46 39 6 0 42 21 81 46
75 49 90 71 133 199 9 28 23 56 30 63 7 7 13 21 13 30 0 15 60 146 107 234 22
43 72 193 78 235 3 21 8 59 10 86 3 26 10 58 15 71 5 13 6 26 4 29 -3 3 -1 23
5 44 6 22 12 154 14 295 2 140 7 260 11 266 4 7 8 26 10 44 3 31 7 49 22 118
3 14 8 43 11 65 3 22 9 45 14 51 6 7 9 16 7 20 -2 10 5 47 27 147 9 40 16 171
19 358 2 153 7 197 25 261 31 109 23 231 -26 418 -23 87 -30 115 -32 131 -1 3
-9 15 -18 27 -10 11 -34 41 -53 67 -19 25 -47 59 -61 75 l-27 28 -1291 1
c-1267 0 -1291 -1 -1301 -20z"/>
</g>
</svg>
