<svg width="106" height="16" xmlns:xlink="http://www.w3.org/1999/xlink" xmlns="http://www.w3.org/2000/svg"><symbol id="a"><path d="M7.828 12.958h.957s.288-.035.436-.209c.136-.16.132-.46.132-.46s-.02-1.406.576-1.613c.588-.204 1.341 1.359 2.14 1.96.605.454 1.064.355 1.064.355l2.137-.033s1.117-.075.587-1.038c-.043-.079-.308-.712-1.588-2.014-1.34-1.362-1.16-1.142.453-3.499.983-1.435 1.376-2.31 1.253-2.686-.117-.358-.84-.263-.84-.263l-2.406.016s-.178-.026-.31.06c-.13.085-.212.283-.212.283s-.381 1.11-.889 2.055c-1.071 1.993-1.5 2.098-1.675 1.974-.407-.288-.305-1.158-.305-1.776 0-1.932.267-2.737-.521-2.945-.262-.07-.454-.115-1.123-.123-.859-.01-1.585.003-1.996.224-.274.147-.485.474-.357.493.16.023.52.106.71.39.247.368.238 1.193.238 1.193s.142 2.274-.33 2.556c-.325.194-.77-.201-1.725-2.01-.489-.926-.858-1.95-.858-1.95s-.072-.19-.199-.293a.94.94 0 00-.37-.163l-2.286.016s-.343.01-.469.174c-.112.145-.009.446-.009.446s1.79 4.588 3.817 6.9c1.858 2.12 3.968 1.98 3.968 1.98"/></symbol><use xlink:href="#a" fill="#3d3e42"/><use xlink:href="#a" x="18" fill="#fff"/><use xlink:href="#a" x="90" fill="#4C76A4"/></svg>